<mxfile host="Electron" modified="2023-06-14T12:59:54.853Z" agent="Mozilla/5.0 (Windows NT 10.0; Win64; x64) AppleWebKit/537.36 (KHTML, like Gecko) draw.io/21.2.8 Chrome/112.0.5615.165 Electron/24.2.0 Safari/537.36" etag="f4xnBqvfov1ZyJV1LdPc" version="21.2.8" type="device">
  <diagram id="j1aVTYXNPt-sK3KB0AaX" name="Страница 1">
    <mxGraphModel dx="2244" dy="2037" grid="0" gridSize="10" guides="1" tooltips="1" connect="1" arrows="1" fold="1" page="1" pageScale="1" pageWidth="827" pageHeight="1169" math="0" shadow="0">
      <root>
        <mxCell id="0" />
        <mxCell id="1" parent="0" />
        <mxCell id="B7M0bKL2C-6c9N5O82LA-13" value="Настройка окна просмотра" style="shape=umlFrame;whiteSpace=wrap;html=1;width=110;height=50;container=1;" parent="1" vertex="1">
          <mxGeometry x="140" y="-140" width="550" height="310" as="geometry" />
        </mxCell>
        <mxCell id="B7M0bKL2C-6c9N5O82LA-7" value="Переключить видимость пола" style="ellipse;whiteSpace=wrap;html=1;" parent="B7M0bKL2C-6c9N5O82LA-13" vertex="1">
          <mxGeometry x="124" y="110" width="150" height="70" as="geometry" />
        </mxCell>
        <mxCell id="B7M0bKL2C-6c9N5O82LA-8" value="Сменить освещение&lt;br&gt;и окружение сцены" style="ellipse;whiteSpace=wrap;html=1;" parent="B7M0bKL2C-6c9N5O82LA-13" vertex="1">
          <mxGeometry x="290" y="110" width="150" height="70" as="geometry" />
        </mxCell>
        <mxCell id="B7M0bKL2C-6c9N5O82LA-9" value="Сменить позу манекена" style="ellipse;whiteSpace=wrap;html=1;" parent="B7M0bKL2C-6c9N5O82LA-13" vertex="1">
          <mxGeometry x="10" y="210" width="150" height="70" as="geometry" />
        </mxCell>
        <mxCell id="B7M0bKL2C-6c9N5O82LA-10" value="Сменить гендер манекена" style="ellipse;whiteSpace=wrap;html=1;" parent="B7M0bKL2C-6c9N5O82LA-13" vertex="1">
          <mxGeometry x="380" y="210" width="150" height="70" as="geometry" />
        </mxCell>
        <mxCell id="B7M0bKL2C-6c9N5O82LA-12" value="Ручной подбор одежды" style="shape=umlFrame;whiteSpace=wrap;html=1;container=1;width=110;height=40;" parent="1" vertex="1">
          <mxGeometry x="40" y="680" width="630" height="330" as="geometry" />
        </mxCell>
        <mxCell id="jidF-8eyVOcuYZuKosaz-36" value="&#xa;&lt;span style=&quot;color: rgb(0, 0, 0); font-family: Helvetica; font-size: 11px; font-style: normal; font-variant-ligatures: normal; font-variant-caps: normal; font-weight: 400; letter-spacing: normal; orphans: 2; text-align: center; text-indent: 0px; text-transform: none; widows: 2; word-spacing: 0px; -webkit-text-stroke-width: 0px; background-color: rgb(255, 255, 255); text-decoration-thickness: initial; text-decoration-style: initial; text-decoration-color: initial; float: none; display: inline !important;&quot;&gt;&quot;extend&quot;&lt;/span&gt;&#xa;&#xa;" style="edgeStyle=none;shape=connector;rounded=0;orthogonalLoop=1;jettySize=auto;html=1;exitX=1;exitY=0.5;exitDx=0;exitDy=0;entryX=0;entryY=0.5;entryDx=0;entryDy=0;dashed=1;labelBackgroundColor=default;fontFamily=Helvetica;fontSize=11;fontColor=default;startArrow=classic;startFill=1;endArrow=none;endFill=0;endSize=12;strokeColor=default;" parent="B7M0bKL2C-6c9N5O82LA-12" source="gbgPSzIbxHU2JyrmjOY1-2" target="gbgPSzIbxHU2JyrmjOY1-7" edge="1">
          <mxGeometry relative="1" as="geometry" />
        </mxCell>
        <mxCell id="jidF-8eyVOcuYZuKosaz-37" value="&#xa;&lt;span style=&quot;color: rgb(0, 0, 0); font-family: Helvetica; font-size: 11px; font-style: normal; font-variant-ligatures: normal; font-variant-caps: normal; font-weight: 400; letter-spacing: normal; orphans: 2; text-align: center; text-indent: 0px; text-transform: none; widows: 2; word-spacing: 0px; -webkit-text-stroke-width: 0px; background-color: rgb(255, 255, 255); text-decoration-thickness: initial; text-decoration-style: initial; text-decoration-color: initial; float: none; display: inline !important;&quot;&gt;&quot;extend&quot;&lt;/span&gt;&#xa;&#xa;" style="edgeStyle=none;shape=connector;rounded=0;orthogonalLoop=1;jettySize=auto;html=1;exitX=1;exitY=1;exitDx=0;exitDy=0;entryX=0;entryY=0;entryDx=0;entryDy=0;dashed=1;labelBackgroundColor=default;fontFamily=Helvetica;fontSize=11;fontColor=default;startArrow=classic;startFill=1;endArrow=none;endFill=0;endSize=12;strokeColor=default;" parent="B7M0bKL2C-6c9N5O82LA-12" source="gbgPSzIbxHU2JyrmjOY1-2" target="gbgPSzIbxHU2JyrmjOY1-6" edge="1">
          <mxGeometry relative="1" as="geometry" />
        </mxCell>
        <mxCell id="jidF-8eyVOcuYZuKosaz-38" value="&#xa;&lt;span style=&quot;color: rgb(0, 0, 0); font-family: Helvetica; font-size: 11px; font-style: normal; font-variant-ligatures: normal; font-variant-caps: normal; font-weight: 400; letter-spacing: normal; orphans: 2; text-align: center; text-indent: 0px; text-transform: none; widows: 2; word-spacing: 0px; -webkit-text-stroke-width: 0px; background-color: rgb(255, 255, 255); text-decoration-thickness: initial; text-decoration-style: initial; text-decoration-color: initial; float: none; display: inline !important;&quot;&gt;&quot;extend&quot;&lt;/span&gt;&#xa;&#xa;" style="edgeStyle=none;shape=connector;rounded=0;orthogonalLoop=1;jettySize=auto;html=1;exitX=0.5;exitY=1;exitDx=0;exitDy=0;entryX=0.5;entryY=0;entryDx=0;entryDy=0;dashed=1;labelBackgroundColor=default;fontFamily=Helvetica;fontSize=11;fontColor=default;startArrow=classic;startFill=1;endArrow=none;endFill=0;endSize=12;strokeColor=default;" parent="B7M0bKL2C-6c9N5O82LA-12" source="gbgPSzIbxHU2JyrmjOY1-2" target="gbgPSzIbxHU2JyrmjOY1-5" edge="1">
          <mxGeometry relative="1" as="geometry" />
        </mxCell>
        <mxCell id="jidF-8eyVOcuYZuKosaz-39" value="&#xa;&lt;span style=&quot;color: rgb(0, 0, 0); font-family: Helvetica; font-size: 11px; font-style: normal; font-variant-ligatures: normal; font-variant-caps: normal; font-weight: 400; letter-spacing: normal; orphans: 2; text-align: center; text-indent: 0px; text-transform: none; widows: 2; word-spacing: 0px; -webkit-text-stroke-width: 0px; background-color: rgb(255, 255, 255); text-decoration-thickness: initial; text-decoration-style: initial; text-decoration-color: initial; float: none; display: inline !important;&quot;&gt;&quot;extend&quot;&lt;/span&gt;&#xa;&#xa;" style="edgeStyle=none;shape=connector;rounded=0;orthogonalLoop=1;jettySize=auto;html=1;exitX=0;exitY=1;exitDx=0;exitDy=0;entryX=1;entryY=0;entryDx=0;entryDy=0;dashed=1;labelBackgroundColor=default;fontFamily=Helvetica;fontSize=11;fontColor=default;startArrow=classic;startFill=1;endArrow=none;endFill=0;endSize=12;strokeColor=default;" parent="B7M0bKL2C-6c9N5O82LA-12" source="gbgPSzIbxHU2JyrmjOY1-2" target="gbgPSzIbxHU2JyrmjOY1-4" edge="1">
          <mxGeometry relative="1" as="geometry" />
        </mxCell>
        <mxCell id="gbgPSzIbxHU2JyrmjOY1-2" value="Собрать образ из выбранной одежды" style="ellipse;whiteSpace=wrap;html=1;" parent="B7M0bKL2C-6c9N5O82LA-12" vertex="1">
          <mxGeometry x="253" y="30" width="140" height="70" as="geometry" />
        </mxCell>
        <mxCell id="gbgPSzIbxHU2JyrmjOY1-7" value="Выбрать другую аксессуар" style="ellipse;whiteSpace=wrap;html=1;" parent="B7M0bKL2C-6c9N5O82LA-12" vertex="1">
          <mxGeometry x="480" y="70" width="140" height="70" as="geometry" />
        </mxCell>
        <mxCell id="gbgPSzIbxHU2JyrmjOY1-6" value="Выбрать другую обувь" style="ellipse;whiteSpace=wrap;html=1;" parent="B7M0bKL2C-6c9N5O82LA-12" vertex="1">
          <mxGeometry x="410" y="150" width="140" height="70" as="geometry" />
        </mxCell>
        <mxCell id="gbgPSzIbxHU2JyrmjOY1-5" value="Выбрать другой&amp;nbsp;&lt;br&gt;низ" style="ellipse;whiteSpace=wrap;html=1;" parent="B7M0bKL2C-6c9N5O82LA-12" vertex="1">
          <mxGeometry x="263" y="230" width="140" height="70" as="geometry" />
        </mxCell>
        <mxCell id="gbgPSzIbxHU2JyrmjOY1-4" value="Выбрать другой&amp;nbsp;&lt;br&gt;верх" style="ellipse;whiteSpace=wrap;html=1;" parent="B7M0bKL2C-6c9N5O82LA-12" vertex="1">
          <mxGeometry x="78" y="148" width="140" height="70" as="geometry" />
        </mxCell>
        <mxCell id="B7M0bKL2C-6c9N5O82LA-11" value="Автоматический подбор образа" style="shape=umlFrame;whiteSpace=wrap;html=1;width=110;height=40;container=1;" parent="1" vertex="1">
          <mxGeometry x="787" y="76" width="650" height="580" as="geometry" />
        </mxCell>
        <mxCell id="B7M0bKL2C-6c9N5O82LA-4" value="Выбрать другой пол" style="ellipse;whiteSpace=wrap;html=1;" parent="B7M0bKL2C-6c9N5O82LA-11" vertex="1">
          <mxGeometry x="235" y="117" width="140" height="70" as="geometry" />
        </mxCell>
        <mxCell id="B7M0bKL2C-6c9N5O82LA-2" value="Выбрать другую погоду" style="ellipse;whiteSpace=wrap;html=1;" parent="B7M0bKL2C-6c9N5O82LA-11" vertex="1">
          <mxGeometry x="329" y="325" width="140" height="70" as="geometry" />
        </mxCell>
        <mxCell id="B7M0bKL2C-6c9N5O82LA-1" value="Выбрать другой стиль" style="ellipse;whiteSpace=wrap;html=1;" parent="B7M0bKL2C-6c9N5O82LA-11" vertex="1">
          <mxGeometry x="210" y="417" width="140" height="70" as="geometry" />
        </mxCell>
        <mxCell id="jidF-8eyVOcuYZuKosaz-19" value="&#xa;&lt;span style=&quot;color: rgb(0, 0, 0); font-family: Helvetica; font-size: 11px; font-style: normal; font-variant-ligatures: normal; font-variant-caps: normal; font-weight: 400; letter-spacing: normal; orphans: 2; text-align: center; text-indent: 0px; text-transform: none; widows: 2; word-spacing: 0px; -webkit-text-stroke-width: 0px; background-color: rgb(255, 255, 255); text-decoration-thickness: initial; text-decoration-style: initial; text-decoration-color: initial; float: none; display: inline !important;&quot;&gt;&quot;extend&quot;&lt;/span&gt;&#xa;&#xa;" style="edgeStyle=none;shape=connector;rounded=0;orthogonalLoop=1;jettySize=auto;html=1;exitX=1;exitY=0;exitDx=0;exitDy=0;entryX=0;entryY=0.5;entryDx=0;entryDy=0;dashed=1;labelBackgroundColor=default;fontFamily=Helvetica;fontSize=11;fontColor=default;endArrow=none;endSize=12;strokeColor=default;startArrow=classic;startFill=1;endFill=0;" parent="B7M0bKL2C-6c9N5O82LA-11" source="gbgPSzIbxHU2JyrmjOY1-8" target="B7M0bKL2C-6c9N5O82LA-4" edge="1">
          <mxGeometry relative="1" as="geometry" />
        </mxCell>
        <mxCell id="jidF-8eyVOcuYZuKosaz-21" value="&#xa;&lt;span style=&quot;color: rgb(0, 0, 0); font-family: Helvetica; font-size: 11px; font-style: normal; font-variant-ligatures: normal; font-variant-caps: normal; font-weight: 400; letter-spacing: normal; orphans: 2; text-align: center; text-indent: 0px; text-transform: none; widows: 2; word-spacing: 0px; -webkit-text-stroke-width: 0px; background-color: rgb(255, 255, 255); text-decoration-thickness: initial; text-decoration-style: initial; text-decoration-color: initial; float: none; display: inline !important;&quot;&gt;&quot;extend&quot;&lt;/span&gt;&#xa;&#xa;" style="edgeStyle=none;shape=connector;rounded=0;orthogonalLoop=1;jettySize=auto;html=1;exitX=1;exitY=0.5;exitDx=0;exitDy=0;entryX=0;entryY=0;entryDx=0;entryDy=0;dashed=1;labelBackgroundColor=default;fontFamily=Helvetica;fontSize=11;fontColor=default;endArrow=none;endSize=12;strokeColor=default;startArrow=classic;startFill=1;endFill=0;" parent="B7M0bKL2C-6c9N5O82LA-11" source="gbgPSzIbxHU2JyrmjOY1-8" target="B7M0bKL2C-6c9N5O82LA-2" edge="1">
          <mxGeometry relative="1" as="geometry" />
        </mxCell>
        <mxCell id="jidF-8eyVOcuYZuKosaz-22" style="edgeStyle=none;shape=connector;rounded=0;orthogonalLoop=1;jettySize=auto;html=1;exitX=0.5;exitY=1;exitDx=0;exitDy=0;entryX=0.5;entryY=0;entryDx=0;entryDy=0;dashed=1;labelBackgroundColor=default;fontFamily=Helvetica;fontSize=11;fontColor=default;endArrow=none;endSize=12;strokeColor=default;startArrow=classic;startFill=1;endFill=0;" parent="B7M0bKL2C-6c9N5O82LA-11" source="gbgPSzIbxHU2JyrmjOY1-8" target="B7M0bKL2C-6c9N5O82LA-1" edge="1">
          <mxGeometry relative="1" as="geometry" />
        </mxCell>
        <mxCell id="jidF-8eyVOcuYZuKosaz-25" value="&quot;extend&quot;" style="edgeLabel;html=1;align=center;verticalAlign=middle;resizable=0;points=[];fontSize=11;fontFamily=Helvetica;fontColor=default;" parent="jidF-8eyVOcuYZuKosaz-22" vertex="1" connectable="0">
          <mxGeometry x="-0.2239" y="1" relative="1" as="geometry">
            <mxPoint as="offset" />
          </mxGeometry>
        </mxCell>
        <mxCell id="gbgPSzIbxHU2JyrmjOY1-8" value="Подобрать стиль по указанным параметрам" style="ellipse;whiteSpace=wrap;html=1;" parent="B7M0bKL2C-6c9N5O82LA-11" vertex="1">
          <mxGeometry x="60" y="255" width="150" height="70" as="geometry" />
        </mxCell>
        <mxCell id="jidF-8eyVOcuYZuKosaz-7" style="rounded=0;orthogonalLoop=1;jettySize=auto;html=1;exitX=1;exitY=0.3333333333333333;exitDx=0;exitDy=0;exitPerimeter=0;entryX=0;entryY=0.5;entryDx=0;entryDy=0;endArrow=none;endFill=0;" parent="1" source="gbgPSzIbxHU2JyrmjOY1-1" target="gbgPSzIbxHU2JyrmjOY1-8" edge="1">
          <mxGeometry relative="1" as="geometry" />
        </mxCell>
        <mxCell id="jidF-8eyVOcuYZuKosaz-8" style="edgeStyle=none;shape=connector;rounded=0;orthogonalLoop=1;jettySize=auto;html=1;exitX=0.75;exitY=0.1;exitDx=0;exitDy=0;exitPerimeter=0;entryX=0.5;entryY=1;entryDx=0;entryDy=0;labelBackgroundColor=default;fontFamily=Helvetica;fontSize=11;fontColor=default;endArrow=none;endFill=0;strokeColor=default;" parent="1" source="gbgPSzIbxHU2JyrmjOY1-1" target="B7M0bKL2C-6c9N5O82LA-10" edge="1">
          <mxGeometry relative="1" as="geometry" />
        </mxCell>
        <mxCell id="jidF-8eyVOcuYZuKosaz-9" style="edgeStyle=none;shape=connector;rounded=0;orthogonalLoop=1;jettySize=auto;html=1;exitX=0.5;exitY=0;exitDx=0;exitDy=0;exitPerimeter=0;entryX=0.5;entryY=1;entryDx=0;entryDy=0;labelBackgroundColor=default;fontFamily=Helvetica;fontSize=11;fontColor=default;endArrow=none;endFill=0;strokeColor=default;" parent="1" source="gbgPSzIbxHU2JyrmjOY1-1" target="B7M0bKL2C-6c9N5O82LA-8" edge="1">
          <mxGeometry relative="1" as="geometry" />
        </mxCell>
        <mxCell id="jidF-8eyVOcuYZuKosaz-10" style="edgeStyle=none;shape=connector;rounded=0;orthogonalLoop=1;jettySize=auto;html=1;exitX=0.5;exitY=0;exitDx=0;exitDy=0;exitPerimeter=0;entryX=0.5;entryY=1;entryDx=0;entryDy=0;labelBackgroundColor=default;fontFamily=Helvetica;fontSize=11;fontColor=default;endArrow=none;endFill=0;strokeColor=default;" parent="1" source="gbgPSzIbxHU2JyrmjOY1-1" target="B7M0bKL2C-6c9N5O82LA-7" edge="1">
          <mxGeometry relative="1" as="geometry" />
        </mxCell>
        <mxCell id="jidF-8eyVOcuYZuKosaz-12" style="edgeStyle=none;shape=connector;rounded=0;orthogonalLoop=1;jettySize=auto;html=1;exitX=1;exitY=1;exitDx=0;exitDy=0;exitPerimeter=0;entryX=0.5;entryY=0;entryDx=0;entryDy=0;labelBackgroundColor=default;fontFamily=Helvetica;fontSize=11;fontColor=default;endArrow=none;endFill=0;strokeColor=default;" parent="1" source="gbgPSzIbxHU2JyrmjOY1-1" target="gbgPSzIbxHU2JyrmjOY1-2" edge="1">
          <mxGeometry relative="1" as="geometry" />
        </mxCell>
        <mxCell id="jidF-8eyVOcuYZuKosaz-13" style="edgeStyle=none;shape=connector;rounded=0;orthogonalLoop=1;jettySize=auto;html=1;exitX=0;exitY=1;exitDx=0;exitDy=0;exitPerimeter=0;entryX=1;entryY=0.5;entryDx=0;entryDy=0;labelBackgroundColor=default;fontFamily=Helvetica;fontSize=11;fontColor=default;endArrow=none;endFill=0;strokeColor=default;" parent="1" source="gbgPSzIbxHU2JyrmjOY1-1" target="jidF-8eyVOcuYZuKosaz-6" edge="1">
          <mxGeometry relative="1" as="geometry" />
        </mxCell>
        <mxCell id="jidF-8eyVOcuYZuKosaz-14" style="edgeStyle=none;shape=connector;rounded=0;orthogonalLoop=1;jettySize=auto;html=1;exitX=0.5;exitY=0.5;exitDx=0;exitDy=0;exitPerimeter=0;entryX=1;entryY=0.5;entryDx=0;entryDy=0;labelBackgroundColor=default;fontFamily=Helvetica;fontSize=11;fontColor=default;endArrow=none;endFill=0;strokeColor=default;" parent="1" source="gbgPSzIbxHU2JyrmjOY1-1" target="jidF-8eyVOcuYZuKosaz-5" edge="1">
          <mxGeometry relative="1" as="geometry" />
        </mxCell>
        <mxCell id="jidF-8eyVOcuYZuKosaz-15" style="edgeStyle=none;shape=connector;rounded=0;orthogonalLoop=1;jettySize=auto;html=1;exitX=0;exitY=0.3333333333333333;exitDx=0;exitDy=0;exitPerimeter=0;entryX=1;entryY=0.5;entryDx=0;entryDy=0;labelBackgroundColor=default;fontFamily=Helvetica;fontSize=11;fontColor=default;endArrow=none;endFill=0;strokeColor=default;" parent="1" source="gbgPSzIbxHU2JyrmjOY1-1" target="jidF-8eyVOcuYZuKosaz-4" edge="1">
          <mxGeometry relative="1" as="geometry" />
        </mxCell>
        <mxCell id="jidF-8eyVOcuYZuKosaz-16" style="edgeStyle=none;shape=connector;rounded=0;orthogonalLoop=1;jettySize=auto;html=1;exitX=0.5;exitY=0;exitDx=0;exitDy=0;exitPerimeter=0;entryX=0.5;entryY=1;entryDx=0;entryDy=0;labelBackgroundColor=default;fontFamily=Helvetica;fontSize=11;fontColor=default;endArrow=none;endFill=0;strokeColor=default;" parent="1" source="gbgPSzIbxHU2JyrmjOY1-1" target="B7M0bKL2C-6c9N5O82LA-9" edge="1">
          <mxGeometry relative="1" as="geometry" />
        </mxCell>
        <mxCell id="jidF-8eyVOcuYZuKosaz-17" style="edgeStyle=none;shape=connector;rounded=0;orthogonalLoop=1;jettySize=auto;html=1;exitX=0.25;exitY=0.1;exitDx=0;exitDy=0;exitPerimeter=0;labelBackgroundColor=default;fontFamily=Helvetica;fontSize=11;fontColor=default;endArrow=none;endFill=0;strokeColor=default;" parent="1" source="gbgPSzIbxHU2JyrmjOY1-1" target="B7M0bKL2C-6c9N5O82LA-15" edge="1">
          <mxGeometry relative="1" as="geometry" />
        </mxCell>
        <mxCell id="gbgPSzIbxHU2JyrmjOY1-1" value="Пользователь" style="shape=umlActor;verticalLabelPosition=bottom;verticalAlign=top;html=1;" parent="1" vertex="1">
          <mxGeometry x="301" y="320" width="108" height="190" as="geometry" />
        </mxCell>
        <mxCell id="B7M0bKL2C-6c9N5O82LA-14" value="Настройка материала модели" style="shape=umlFrame;whiteSpace=wrap;html=1;width=80;height=50;container=1;" parent="1" vertex="1">
          <mxGeometry x="-471" y="-268" width="550" height="470" as="geometry" />
        </mxCell>
        <mxCell id="B7M0bKL2C-6c9N5O82LA-15" value="Выбрать модель&lt;br&gt;в окне вьюпорта" style="ellipse;whiteSpace=wrap;html=1;" parent="B7M0bKL2C-6c9N5O82LA-14" vertex="1">
          <mxGeometry x="360" y="280" width="162.5" height="70" as="geometry" />
        </mxCell>
        <mxCell id="B7M0bKL2C-6c9N5O82LA-16" value="Применить материал к модели" style="ellipse;whiteSpace=wrap;html=1;" parent="B7M0bKL2C-6c9N5O82LA-14" vertex="1">
          <mxGeometry x="8" y="311" width="162.5" height="70" as="geometry" />
        </mxCell>
        <mxCell id="jidF-8eyVOcuYZuKosaz-2" value="Осмотреть модель в окне предпросмотра" style="ellipse;whiteSpace=wrap;html=1;" parent="B7M0bKL2C-6c9N5O82LA-14" vertex="1">
          <mxGeometry x="40" y="60" width="162.5" height="70" as="geometry" />
        </mxCell>
        <mxCell id="jidF-8eyVOcuYZuKosaz-31" value="&lt;br&gt;&lt;span style=&quot;color: rgb(0, 0, 0); font-family: Helvetica; font-size: 11px; font-style: normal; font-variant-ligatures: normal; font-variant-caps: normal; font-weight: 400; letter-spacing: normal; orphans: 2; text-align: center; text-indent: 0px; text-transform: none; widows: 2; word-spacing: 0px; -webkit-text-stroke-width: 0px; background-color: rgb(255, 255, 255); text-decoration-thickness: initial; text-decoration-style: initial; text-decoration-color: initial; float: none; display: inline !important;&quot;&gt;&quot;include&quot;&lt;/span&gt;&lt;br&gt;" style="edgeStyle=none;shape=connector;rounded=0;orthogonalLoop=1;jettySize=auto;html=1;entryX=1;entryY=1;entryDx=0;entryDy=0;dashed=1;labelBackgroundColor=default;fontFamily=Helvetica;fontSize=11;fontColor=default;endArrow=classic;endSize=6;strokeColor=default;exitX=0;exitY=0;exitDx=0;exitDy=0;endFill=1;startSize=0;targetPerimeterSpacing=0;sourcePerimeterSpacing=0;" parent="B7M0bKL2C-6c9N5O82LA-14" edge="1">
          <mxGeometry relative="1" as="geometry">
            <mxPoint x="383.8152598595532" y="290.2436464911866" as="sourcePoint" />
            <mxPoint x="318.68474014044114" y="239.75635350881112" as="targetPoint" />
          </mxGeometry>
        </mxCell>
        <mxCell id="jidF-8eyVOcuYZuKosaz-34" value="&#xa;&lt;span style=&quot;color: rgb(0, 0, 0); font-family: Helvetica; font-size: 11px; font-style: normal; font-variant-ligatures: normal; font-variant-caps: normal; font-weight: 400; letter-spacing: normal; orphans: 2; text-align: center; text-indent: 0px; text-transform: none; widows: 2; word-spacing: 0px; -webkit-text-stroke-width: 0px; background-color: rgb(255, 255, 255); text-decoration-thickness: initial; text-decoration-style: initial; text-decoration-color: initial; float: none; display: inline !important;&quot;&gt;&quot;extend&quot;&lt;/span&gt;&#xa;&#xa;" style="edgeStyle=none;shape=connector;rounded=0;orthogonalLoop=1;jettySize=auto;html=1;exitX=0;exitY=0;exitDx=0;exitDy=0;entryX=1;entryY=1;entryDx=0;entryDy=0;dashed=1;labelBackgroundColor=default;fontFamily=Helvetica;fontSize=11;fontColor=default;startArrow=classic;startFill=1;endArrow=none;endFill=0;endSize=12;strokeColor=default;" parent="B7M0bKL2C-6c9N5O82LA-14" source="jidF-8eyVOcuYZuKosaz-1" target="jidF-8eyVOcuYZuKosaz-2" edge="1">
          <mxGeometry relative="1" as="geometry" />
        </mxCell>
        <mxCell id="jidF-8eyVOcuYZuKosaz-35" value="&#xa;&lt;span style=&quot;color: rgb(0, 0, 0); font-family: Helvetica; font-size: 11px; font-style: normal; font-variant-ligatures: normal; font-variant-caps: normal; font-weight: 400; letter-spacing: normal; orphans: 2; text-align: center; text-indent: 0px; text-transform: none; widows: 2; word-spacing: 0px; -webkit-text-stroke-width: 0px; background-color: rgb(255, 255, 255); text-decoration-thickness: initial; text-decoration-style: initial; text-decoration-color: initial; float: none; display: inline !important;&quot;&gt;&quot;extend&quot;&lt;/span&gt;&#xa;&#xa;" style="edgeStyle=none;shape=connector;rounded=0;orthogonalLoop=1;jettySize=auto;html=1;exitX=0;exitY=1;exitDx=0;exitDy=0;entryX=1;entryY=0;entryDx=0;entryDy=0;dashed=1;labelBackgroundColor=default;fontFamily=Helvetica;fontSize=11;fontColor=default;startArrow=classic;startFill=1;endArrow=none;endFill=0;endSize=12;strokeColor=default;" parent="B7M0bKL2C-6c9N5O82LA-14" source="jidF-8eyVOcuYZuKosaz-1" target="B7M0bKL2C-6c9N5O82LA-16" edge="1">
          <mxGeometry relative="1" as="geometry" />
        </mxCell>
        <mxCell id="jidF-8eyVOcuYZuKosaz-1" value="Выбрать материал из предложенного списка" style="ellipse;whiteSpace=wrap;html=1;" parent="B7M0bKL2C-6c9N5O82LA-14" vertex="1">
          <mxGeometry x="180" y="180" width="162.5" height="70" as="geometry" />
        </mxCell>
        <mxCell id="4U0nzvqhfWO089EIN1hV-1" value="Применить цвет материала к модели" style="ellipse;whiteSpace=wrap;html=1;" vertex="1" parent="B7M0bKL2C-6c9N5O82LA-14">
          <mxGeometry x="166" y="370" width="162.5" height="70" as="geometry" />
        </mxCell>
        <mxCell id="4U0nzvqhfWO089EIN1hV-2" value="&#xa;&lt;span style=&quot;color: rgb(0, 0, 0); font-family: Helvetica; font-size: 11px; font-style: normal; font-variant-ligatures: normal; font-variant-caps: normal; font-weight: 400; letter-spacing: normal; orphans: 2; text-align: center; text-indent: 0px; text-transform: none; widows: 2; word-spacing: 0px; -webkit-text-stroke-width: 0px; background-color: rgb(255, 255, 255); text-decoration-thickness: initial; text-decoration-style: initial; text-decoration-color: initial; float: none; display: inline !important;&quot;&gt;&quot;extend&quot;&lt;/span&gt;&#xa;&#xa;" style="edgeStyle=none;shape=connector;rounded=0;orthogonalLoop=1;jettySize=auto;html=1;exitX=0.5;exitY=1;exitDx=0;exitDy=0;entryX=0.5;entryY=0;entryDx=0;entryDy=0;dashed=1;labelBackgroundColor=default;fontFamily=Helvetica;fontSize=11;fontColor=default;startArrow=classic;startFill=1;endArrow=none;endFill=0;endSize=12;strokeColor=default;" edge="1" target="4U0nzvqhfWO089EIN1hV-1" parent="B7M0bKL2C-6c9N5O82LA-14" source="jidF-8eyVOcuYZuKosaz-1">
          <mxGeometry relative="1" as="geometry">
            <mxPoint x="330" y="280" as="sourcePoint" />
          </mxGeometry>
        </mxCell>
        <mxCell id="jidF-8eyVOcuYZuKosaz-3" value="Взаимодействие со вьюпортом" style="shape=umlFrame;whiteSpace=wrap;html=1;width=100;height=40;container=1;" parent="1" vertex="1">
          <mxGeometry x="-490" y="290" width="340" height="360" as="geometry" />
        </mxCell>
        <mxCell id="jidF-8eyVOcuYZuKosaz-4" value="Повернуть виртуальную камеру" style="ellipse;whiteSpace=wrap;html=1;" parent="jidF-8eyVOcuYZuKosaz-3" vertex="1">
          <mxGeometry x="74.18" y="40" width="175.82" height="70" as="geometry" />
        </mxCell>
        <mxCell id="jidF-8eyVOcuYZuKosaz-5" value="Приблизить камеру к модели" style="ellipse;whiteSpace=wrap;html=1;" parent="jidF-8eyVOcuYZuKosaz-3" vertex="1">
          <mxGeometry x="12.36" y="145" width="187.64" height="70" as="geometry" />
        </mxCell>
        <mxCell id="jidF-8eyVOcuYZuKosaz-6" value="Передвинуть камеру" style="ellipse;whiteSpace=wrap;html=1;" parent="jidF-8eyVOcuYZuKosaz-3" vertex="1">
          <mxGeometry x="103.24" y="249" width="196.76" height="70" as="geometry" />
        </mxCell>
      </root>
    </mxGraphModel>
  </diagram>
</mxfile>
